PathFileType	4	(X/Y/Z)	s01c0103.trc
DataRate	CameraRate	NumFrames	NumMarkers	Units	OrigDataRate	OrigDataStartFrame	OrigNumFrames
200	200	6	48	mm	200	0	2000
Frame#	Time	racr			lacr			c7			jug			rlel			rdr			llel			ldr			s2			lic			ric			lasi			rasi			rpsi			lpsi			rgt			lgt			rth1			rth2			rth3			rth4			rlfc			rsh1			rsh2			rsh3			rsh4			rlmal			rmmal			rcal			rtoe			rmt5			lth1			lth2			lth4			lth3			llfc			lsh1			lsh2			lsh3			lsh4			llmal			lmmal			lcal			ltoe			lmt5			SBIKE			LBIKE			RBIKE			
		X1	Y1	Z1	X2	Y2	Z2	X3	Y3	Z3	X4	Y4	Z4	X5	Y5	Z5	X6	Y6	Z6	X7	Y7	Z7	X8	Y8	Z8	X9	Y9	Z9	X10	Y10	Z10	X11	Y11	Z11	X12	Y12	Z12	X13	Y13	Z13	X14	Y14	Z14	X15	Y15	Z15	X16	Y16	Z16	X17	Y17	Z17	X18	Y18	Z18	X19	Y19	Z19	X20	Y20	Z20	X21	Y21	Z21	X22	Y22	Z22	X23	Y23	Z23	X24	Y24	Z24	X25	Y25	Z25	X26	Y26	Z26	X27	Y27	Z27	X28	Y28	Z28	X29	Y29	Z29	X30	Y30	Z30	X31	Y31	Z31	X32	Y32	Z32	X33	Y33	Z33	X34	Y34	Z34	X35	Y35	Z35	X36	Y36	Z36	X37	Y37	Z37	X38	Y38	Z38	X39	Y39	Z39	X40	Y40	Z40	X41	Y41	Z41	X42	Y42	Z42	X43	Y43	Z43	X44	Y44	Z44	X45	Y45	Z45	X46	Y46	Z46	X47	Y47	Z47	X48	Y48	Z48	
0	0.0000	0.000000	0.000000	-0.000000	0.000000	0.000000	-0.000000	439.199506	1370.064082	-294.785360	483.906959	1328.041462	-155.064318	0.000000	0.000000	-0.000000	0.000000	0.000000	-0.000000	0.000000	0.000000	-0.000000	0.000000	0.000000	-0.000000	-89.948233	1159.710256	-256.609481	76.666915	1155.933300	-424.224646	80.469830	1128.064661	-105.731597	65.555206	1102.930706	-409.141515	92.147789	1076.463365	-128.638893	-54.138943	1182.740129	-197.464134	-62.325431	1192.608109	-302.264049	-1.162405	1013.480732	-73.124280	3.005793	1047.544302	-468.158536	57.310519	890.487107	-57.611778	105.022721	821.917041	-62.295582	150.869643	744.999711	-78.014244	151.335277	851.110927	-74.444153	183.143749	641.757958	-98.873750	115.913633	543.849614	-65.146727	82.737942	464.671464	-68.359543	39.910276	386.855942	-80.649064	125.934857	445.798090	-105.943312	-14.881589	269.874294	-98.275477	20.805798	285.289369	-179.003485	-63.628667	232.236775	-149.899079	207.433251	225.820336	-145.600737	107.204887	192.746285	-72.139767	103.087551	973.627484	-472.295405	191.799223	965.866919	-479.322134	198.192494	1020.022521	-471.178632	275.798001	950.467557	-466.852914	383.499099	889.091726	-448.108085	305.430128	804.343819	-466.281892	273.660775	724.169379	-456.334636	241.281269	646.505383	-437.971579	327.695887	705.962445	-431.509113	198.944315	526.271935	-415.390923	229.132327	539.453454	-333.749861	151.148773	480.154251	-375.564716	427.944611	496.851708	-384.869748	325.539329	461.974614	-450.386313	0.000000	0.000000	-0.000000	-22.988118	80.470002	-456.658368	-22.992247	80.498298	-56.112377	
1	0.0050	0.000000	0.000000	-0.000000	0.000000	0.000000	-0.000000	439.260872	1369.984088	-294.839003	484.029748	1327.907705	-155.223073	0.000000	0.000000	-0.000000	0.000000	0.000000	-0.000000	0.000000	0.000000	-0.000000	0.000000	0.000000	-0.000000	-89.884573	1159.706385	-256.593391	76.726786	1155.946658	-424.244186	80.517575	1128.018235	-105.698226	65.597940	1102.947585	-409.113249	92.202462	1076.422824	-128.640299	-54.078504	1182.785273	-197.441489	-62.264187	1192.615287	-302.229130	-1.113465	1013.456842	-73.114455	3.051053	1047.593938	-468.138374	57.358081	890.468703	-57.596364	105.097868	821.887013	-62.295496	150.933948	744.987337	-78.012594	151.384256	851.102974	-74.433508	183.207136	641.774868	-98.867252	115.974315	543.843905	-65.143760	82.744821	464.686083	-68.371932	39.937793	386.864333	-80.627420	125.988454	445.776056	-105.958962	-14.860876	269.847074	-98.256683	20.892938	285.250164	-179.030488	-63.605787	232.255891	-149.886903	207.439039	225.824713	-145.594748	107.233480	192.750260	-72.140458	103.124798	973.674464	-472.297193	191.833353	965.938761	-479.290635	198.259802	1020.047108	-471.185969	275.822732	950.456671	-466.830306	383.519247	889.095995	-448.089762	305.441377	804.346784	-466.272079	273.675638	724.174813	-456.328259	241.286921	646.517279	-437.959677	327.697786	705.961150	-431.491836	198.946003	526.288687	-415.388074	229.078735	539.428628	-333.754472	151.156814	480.162703	-375.552439	427.942543	496.851750	-384.865518	325.538789	461.978082	-450.378122	0.000000	0.000000	-0.000000	-22.978487	80.447365	-456.666186	-23.000883	80.495914	-56.124416	
2	0.0100	0.000000	0.000000	-0.000000	0.000000	0.000000	-0.000000	439.246884	1369.856656	-294.838100	484.122548	1327.774172	-155.358862	0.000000	0.000000	-0.000000	0.000000	0.000000	-0.000000	0.000000	0.000000	-0.000000	0.000000	0.000000	-0.000000	-89.847542	1159.710247	-256.560515	76.718071	1156.018909	-424.195847	80.561583	1127.990607	-105.664952	65.604635	1102.986234	-409.118089	92.255156	1076.402157	-128.606685	-54.029276	1182.800338	-197.386524	-62.210155	1192.623935	-302.193721	-1.072337	1013.429250	-73.102441	3.066841	1047.638124	-468.113808	57.401045	890.441341	-57.610748	105.156613	821.858603	-62.317061	150.973354	744.965742	-78.005228	151.432568	851.083573	-74.438891	183.258619	641.765597	-98.885291	116.020189	543.839455	-65.149447	82.802350	464.700089	-68.362689	39.966951	386.872897	-80.647309	125.991411	445.767239	-105.952511	-14.852212	269.862720	-98.257611	21.033866	285.201112	-179.093817	-63.599347	232.280682	-149.890471	207.466552	225.805318	-145.598055	107.234335	192.740962	-72.147233	103.146389	973.698417	-472.275738	191.859926	965.948818	-479.279540	198.300653	1020.056535	-471.145773	275.856360	950.465303	-466.815149	383.532792	889.092901	-448.069106	305.454881	804.354973	-466.258554	273.693883	724.178220	-456.316904	241.290821	646.527089	-437.961391	327.711504	705.968803	-431.476967	198.945513	526.289107	-415.388830	229.079593	539.431845	-333.756294	151.151237	480.172572	-375.544988	427.938958	496.847647	-384.869973	325.541460	461.982412	-450.372274	0.000000	0.000000	-0.000000	-22.981337	80.445271	-456.668908	-23.011538	80.487739	-56.131040	
3	0.0150	0.000000	0.000000	-0.000000	0.000000	0.000000	-0.000000	439.235418	1369.731904	-294.837709	484.062113	1327.274891	-155.933250	0.000000	0.000000	-0.000000	0.000000	0.000000	-0.000000	0.000000	0.000000	-0.000000	0.000000	0.000000	-0.000000	-89.813514	1159.727939	-256.511586	76.804030	1156.100986	-424.253484	80.617435	1127.973373	-105.642230	65.679503	1102.983859	-409.073961	92.671589	1076.456686	-128.573049	-54.296849	1183.694552	-196.521882	-62.157118	1192.633419	-302.160098	-1.045599	1013.305935	-73.055012	3.103115	1047.644451	-468.091058	57.453673	890.431908	-57.576827	105.189286	821.855055	-62.305418	151.086323	745.045148	-78.210810	151.775555	851.488947	-73.986403	183.165794	641.773855	-98.883441	116.059381	543.835986	-65.154700	82.828815	464.699910	-68.368548	39.988066	386.879625	-80.636451	126.035260	445.768340	-105.945951	-14.903554	270.142377	-98.389085	21.161564	285.163072	-179.154549	-63.579944	232.300832	-149.892754	207.345513	225.805234	-145.494473	107.219361	192.751218	-72.140878	103.153453	973.736160	-472.254629	191.892542	965.779956	-479.358292	198.429380	1020.039031	-471.125771	275.872784	950.474063	-466.799438	383.531342	889.097677	-448.048879	305.464245	804.368602	-466.238026	273.699945	724.179612	-456.305672	241.491174	646.598441	-437.936331	328.256934	706.077410	-432.832257	198.948631	526.291470	-415.390605	229.122545	539.410699	-333.759196	151.063268	480.451575	-375.559375	427.945887	496.847489	-384.867386	325.542401	461.990176	-450.364710	0.000000	0.000000	-0.000000	-22.982302	80.453988	-456.659110	-23.006864	80.501479	-56.131826	
4	0.0200	0.000000	0.000000	-0.000000	0.000000	0.000000	-0.000000	439.192903	1369.580026	-294.815049	483.855593	1326.427525	-156.925208	0.000000	0.000000	-0.000000	0.000000	0.000000	-0.000000	0.000000	0.000000	-0.000000	0.000000	0.000000	-0.000000	-89.338508	1159.490814	-256.119479	76.980189	1156.192326	-424.412197	80.678825	1127.896612	-105.565386	65.753713	1102.976183	-409.035108	92.740497	1076.362701	-128.484849	-54.252248	1183.639034	-196.469627	-62.108815	1192.644107	-302.128238	-1.046319	1013.189851	-73.010967	3.096258	1047.680130	-468.137313	57.503228	890.426440	-57.580430	105.181647	821.774992	-62.353681	151.137679	745.035087	-78.203577	151.838763	851.481209	-73.991264	183.231166	641.775776	-98.942782	116.442533	544.235432	-65.014345	82.893156	464.713216	-68.380960	40.011304	386.871270	-80.657556	126.060321	445.810522	-106.094786	-15.055008	270.192777	-98.393752	21.290307	285.131975	-179.219861	-63.564779	232.348243	-149.884796	207.337217	225.807351	-145.494835	107.215462	192.705377	-72.197302	103.146149	973.787510	-472.233928	191.918327	965.773685	-479.331785	198.525282	1020.152719	-470.947242	275.991681	950.686473	-466.717628	383.515020	889.110200	-448.029053	305.469529	804.387670	-466.210617	273.740920	724.168204	-456.305052	241.337084	646.717967	-437.959213	328.345713	706.072537	-432.743981	198.955313	526.295532	-415.393395	229.207148	539.365555	-333.763140	151.044205	480.458804	-375.553567	427.929727	496.852631	-384.903264	325.541734	462.001222	-450.355492	0.000000	0.000000	-0.000000	-22.806387	80.294713	-456.476568	-22.968034	80.473569	-55.927216	
5	0.0250	0.000000	0.000000	-0.000000	0.000000	0.000000	-0.000000	439.131748	1369.447129	-294.773824	483.510045	1325.249368	-158.313686	0.000000	0.000000	-0.000000	0.000000	0.000000	-0.000000	0.000000	0.000000	-0.000000	0.000000	0.000000	-0.000000	-89.783601	1159.743201	-256.498711	77.242077	1156.292245	-424.667110	80.742600	1127.967574	-105.586261	65.834780	1102.959984	-408.993981	92.793195	1076.356549	-128.464939	-54.151828	1183.731532	-196.485333	-62.064129	1192.655987	-302.099328	-0.880592	1013.402679	-73.060945	3.205697	1047.663302	-467.986058	57.551359	890.413883	-57.572543	105.294414	821.875886	-62.284925	151.203671	745.017715	-78.194972	151.906939	851.466414	-73.981312	183.299629	641.759217	-98.863626	116.051560	543.730201	-65.193174	82.934553	464.713344	-68.386621	40.037250	386.895851	-80.659249	126.096723	445.815284	-106.119608	-14.875630	270.127887	-98.326128	21.383893	285.135886	-179.284818	-63.539759	232.311952	-149.855734	207.347258	225.810125	-145.493646	107.268006	192.763798	-72.099628	103.124646	973.852285	-472.213547	191.938532	965.759240	-479.354644	198.553331	1020.175773	-470.948916	276.104548	950.667045	-466.725811	383.483946	889.130288	-448.009628	305.470759	804.411991	-466.176449	273.697597	724.203565	-456.296633	241.462128	646.665403	-437.854679	328.641017	706.107754	-432.669314	198.965543	526.301293	-415.397171	229.332928	539.296414	-333.768176	151.055517	480.477687	-375.554322	427.966293	496.810521	-384.846711	325.539426	462.015550	-450.344649	0.000000	0.000000	-0.000000	-24.018234	81.403052	-456.684252	-22.831200	80.329032	-56.039964	
